<svg version="1.1" xmlns="http://www.w3.org/2000/svg" viewBox="0 0 1255 785" width="1255" height="785">
  <!-- svg-source:excalidraw -->
  
  <defs>
    <style>
      @font-face {
        font-family: "Virgil";
        src: url("https://excalidraw.com/Virgil.woff2");
      }
      @font-face {
        font-family: "Cascadia";
        src: url("https://excalidraw.com/Cascadia.woff2");
      }
    </style>
  </defs>
  <rect x="0" y="0" width="1255" height="785" fill="#ffffff"></rect><g transform="translate(460 10) rotate(0 300 17.5)"><text x="300" y="22.90" font-family="Virgil, Segoe UI Emoji" font-size="24px" fill="#1e1e1e" text-anchor="middle" style="white-space: pre;" direction="ltr">Shop Sergeant — System Architecture</text></g><g stroke-linecap="round" transform="translate(10 170) rotate(0 200 265)"><path d="M0 0 C80 0, 160 0, 400 0 M400 0 C400 117.32, 400 234.63, 400 530 M400 530 C313 530, 226 530, 0 530 M0 530 C0 387.75, 0 245.5, 0 0" stroke="#868e96" stroke-width="1.5" fill="none" stroke-dasharray="8 9"></path></g><g transform="translate(30 180) rotate(0 180 11)"><text x="180" y="14.15" font-family="Virgil, Segoe UI Emoji" font-size="14px" fill="#868e96" text-anchor="middle" style="white-space: pre;" direction="ltr">Phase 0: Sheet Generation (Complete)</text></g><g stroke-linecap="round" transform="translate(110 240) rotate(0 100 30)"><path d="M0 0 L200 0 L200 60 L0 60" stroke="none" stroke-width="0" fill="#ffec99"></path><path d="M0 0 C40 0, 80 0, 200 0 M0 0 C44.27 0, 88.54 0, 200 0 M200 0 C200 13.05, 200 26.1, 200 60 M200 0 C200 16.1, 200 32.21, 200 60 M200 60 C156.87 60, 113.73 60, 0 60 M200 60 C124.82 60, 49.63 60, 0 60 M0 60 C0 42.79, 0 25.58, 0 0 M0 60 C0 38.17, 0 16.35, 0 0" stroke="#f08c00" stroke-width="2" fill="none"></path></g><g transform="translate(110 240) rotate(0 100 30)"><text x="100" y="24.80" font-family="Virgil, Segoe UI Emoji" font-size="13px" fill="#1e1e1e" text-anchor="middle" style="white-space: pre;" direction="ltr">YAML Task Catalog</text><text x="100" y="41.05" font-family="Virgil, Segoe UI Emoji" font-size="13px" fill="#1e1e1e" text-anchor="middle" style="white-space: pre;" direction="ltr">(input/*.yaml)</text></g><g stroke-linecap="round" transform="translate(75 360) rotate(0 135 32.5)"><path d="M0 0 L270 0 L270 65 L0 65" stroke="none" stroke-width="0" fill="#d0bfff"></path><path d="M0 0 C54 0, 108 0, 270 0 M0 0 C59.77 0, 119.53 0, 270 0 M270 0 C270 14.14, 270 28.28, 270 65 M270 0 C270 17.45, 270 34.89, 270 65 M270 65 C211.77 65, 153.54 65, 0 65 M270 65 C168.5 65, 67.01 65, 0 65 M0 65 C0 46.36, 0 27.71, 0 0 M0 65 C0 41.36, 0 17.71, 0 0" stroke="#7048e8" stroke-width="2" fill="none"></path></g><g transform="translate(75 360) rotate(0 135 32.5)"><text x="135" y="21.23" font-family="Virgil, Segoe UI Emoji" font-size="11px" fill="#1e1e1e" text-anchor="middle" style="white-space: pre;" direction="ltr">scripts/</text><text x="135" y="34.98" font-family="Virgil, Segoe UI Emoji" font-size="11px" fill="#1e1e1e" text-anchor="middle" style="white-space: pre;" direction="ltr">(signup_sheet_builder, parse-tasks,</text><text x="135" y="48.73" font-family="Virgil, Segoe UI Emoji" font-size="11px" fill="#1e1e1e" text-anchor="middle" style="white-space: pre;" direction="ltr">yaml-to-sheets, markdown_writer)</text></g><g stroke-linecap="round" transform="translate(110 480) rotate(0 100 30)"><path d="M0 0 L200 0 L200 60 L0 60" stroke="none" stroke-width="0" fill="#ffec99"></path><path d="M0 0 C40 0, 80 0, 200 0 M0 0 C44.27 0, 88.54 0, 200 0 M200 0 C200 13.05, 200 26.1, 200 60 M200 0 C200 16.1, 200 32.21, 200 60 M200 60 C156.87 60, 113.73 60, 0 60 M200 60 C124.82 60, 49.63 60, 0 60 M0 60 C0 42.79, 0 25.58, 0 0 M0 60 C0 38.17, 0 16.35, 0 0" stroke="#f08c00" stroke-width="2" fill="none"></path></g><g transform="translate(110 480) rotate(0 100 30)"><text x="100" y="24.80" font-family="Virgil, Segoe UI Emoji" font-size="13px" fill="#1e1e1e" text-anchor="middle" style="white-space: pre;" direction="ltr">Jinja2 Template</text><text x="100" y="41.05" font-family="Virgil, Segoe UI Emoji" font-size="13px" fill="#1e1e1e" text-anchor="middle" style="white-space: pre;" direction="ltr">(.html.j2)</text></g><g stroke-linecap="round" transform="translate(65 605) rotate(0 70 30)"><path d="M0 0 L140 0 L140 60 L0 60" stroke="none" stroke-width="0" fill="#ffec99"></path><path d="M0 0 C28 0, 56 0, 140 0 M0 0 C30.99 0, 61.98 0, 140 0 M140 0 C140 13.05, 140 26.1, 140 60 M140 0 C140 16.1, 140 32.21, 140 60 M140 60 C109.81 60, 79.61 60, 0 60 M140 60 C87.37 60, 34.74 60, 0 60 M0 60 C0 42.79, 0 25.58, 0 0 M0 60 C0 38.17, 0 16.35, 0 0" stroke="#f08c00" stroke-width="2" fill="none"></path></g><g transform="translate(65 605) rotate(0 70 30)"><text x="70" y="25.20" font-family="Virgil, Segoe UI Emoji" font-size="12px" fill="#1e1e1e" text-anchor="middle" style="white-space: pre;" direction="ltr">HTML / PDF</text><text x="70" y="40.20" font-family="Virgil, Segoe UI Emoji" font-size="12px" fill="#1e1e1e" text-anchor="middle" style="white-space: pre;" direction="ltr">Sign-up Sheet</text></g><g stroke-linecap="round" transform="translate(225 605) rotate(0 72.5 30)"><path d="M0 0 L145 0 L145 60 L0 60" stroke="none" stroke-width="0" fill="#ffec99"></path><path d="M0 0 C29 0, 58 0, 145 0 M0 0 C32.1 0, 64.19 0, 145 0 M145 0 C145 13.05, 145 26.1, 145 60 M145 0 C145 16.1, 145 32.21, 145 60 M145 60 C113.73 60, 82.45 60, 0 60 M145 60 C90.49 60, 35.99 60, 0 60 M0 60 C0 42.79, 0 25.58, 0 0 M0 60 C0 38.17, 0 16.35, 0 0" stroke="#f08c00" stroke-width="2" fill="none"></path></g><g transform="translate(225 605) rotate(0 72.5 30)"><text x="72.5" y="25.60" font-family="Virgil, Segoe UI Emoji" font-size="11px" fill="#1e1e1e" text-anchor="middle" style="white-space: pre;" direction="ltr">QR Codes</text><text x="72.5" y="39.35" font-family="Virgil, Segoe UI Emoji" font-size="11px" fill="#1e1e1e" text-anchor="middle" style="white-space: pre;" direction="ltr">(per task, inline PNG)</text></g><g stroke-linecap="round" transform="translate(520 60) rotate(0 70 30)"><path d="M140 30 C140 31.31, 139.8 32.62, 139.4 33.92 C139 35.21, 138.4 36.5, 137.61 37.76 C136.83 39.03, 135.84 40.27, 134.67 41.48 C133.51 42.69, 132.14 43.87, 130.62 45 C129.1 46.13, 127.39 47.23, 125.53 48.26 C123.68 49.3, 121.65 50.29, 119.5 51.21 C117.34 52.14, 115.03 53.01, 112.61 53.8 C110.2 54.6, 107.64 55.33, 105 55.98 C102.36 56.63, 99.6 57.22, 96.79 57.72 C93.97 58.22, 91.06 58.64, 88.12 58.98 C85.18 59.32, 82.16 59.57, 79.14 59.74 C76.12 59.91, 73.05 60, 70 60 C66.95 60, 63.88 59.91, 60.86 59.74 C57.84 59.57, 54.82 59.32, 51.88 58.98 C48.94 58.64, 46.03 58.22, 43.21 57.72 C40.4 57.22, 37.64 56.63, 35 55.98 C32.36 55.33, 29.8 54.6, 27.39 53.8 C24.97 53.01, 22.66 52.14, 20.5 51.21 C18.35 50.29, 16.32 49.3, 14.47 48.26 C12.61 47.23, 10.9 46.13, 9.38 45 C7.86 43.87, 6.49 42.69, 5.33 41.48 C4.16 40.27, 3.17 39.03, 2.39 37.76 C1.6 36.5, 1 35.21, 0.6 33.92 C0.2 32.62, 0 31.31, 0 30 C0 28.69, 0.2 27.38, 0.6 26.08 C1 24.79, 1.6 23.5, 2.39 22.24 C3.17 20.97, 4.16 19.73, 5.33 18.52 C6.49 17.31, 7.86 16.13, 9.38 15 C10.9 13.87, 12.61 12.77, 14.47 11.74 C16.32 10.7, 18.35 9.71, 20.5 8.79 C22.66 7.86, 24.97 6.99, 27.39 6.2 C29.8 5.4, 32.36 4.67, 35 4.02 C37.64 3.37, 40.4 2.78, 43.21 2.28 C46.03 1.78, 48.94 1.36, 51.88 1.02 C54.82 0.68, 57.84 0.43, 60.86 0.26 C63.88 0.09, 66.95 0, 70 0 C73.05 0, 76.12 0.09, 79.14 0.26 C82.16 0.43, 85.18 0.68, 88.12 1.02 C91.06 1.36, 93.97 1.78, 96.79 2.28 C99.6 2.78, 102.36 3.37, 105 4.02 C107.64 4.67, 110.2 5.4, 112.61 6.2 C115.03 6.99, 117.34 7.86, 119.5 8.79 C121.65 9.71, 123.68 10.7, 125.53 11.74 C127.39 12.77, 129.1 13.87, 130.62 15 C132.14 16.13, 133.51 17.31, 134.67 18.52 C135.84 19.73, 136.83 20.97, 137.61 22.24 C138.4 23.5, 139 24.79, 139.4 26.08 C139.8 27.38, 139.9 29.35, 140 30 C140.1 30.65, 140.1 29.35, 140 30" stroke="none" stroke-width="0" fill="#e7f5ff"></path><path d="M140 30 C140 31.31, 139.8 32.62, 139.4 33.92 C139 35.21, 138.4 36.5, 137.61 37.76 C136.83 39.03, 135.84 40.27, 134.67 41.48 C133.51 42.69, 132.14 43.87, 130.62 45 C129.1 46.13, 127.39 47.23, 125.53 48.26 C123.68 49.3, 121.65 50.29, 119.5 51.21 C117.34 52.14, 115.03 53.01, 112.61 53.8 C110.2 54.6, 107.64 55.33, 105 55.98 C102.36 56.63, 99.6 57.22, 96.79 57.72 C93.97 58.22, 91.06 58.64, 88.12 58.98 C85.18 59.32, 82.16 59.57, 79.14 59.74 C76.12 59.91, 73.05 60, 70 60 C66.95 60, 63.88 59.91, 60.86 59.74 C57.84 59.57, 54.82 59.32, 51.88 58.98 C48.94 58.64, 46.03 58.22, 43.21 57.72 C40.4 57.22, 37.64 56.63, 35 55.98 C32.36 55.33, 29.8 54.6, 27.39 53.8 C24.97 53.01, 22.66 52.14, 20.5 51.21 C18.35 50.29, 16.32 49.3, 14.47 48.26 C12.61 47.23, 10.9 46.13, 9.38 45 C7.86 43.87, 6.49 42.69, 5.33 41.48 C4.16 40.27, 3.17 39.03, 2.39 37.76 C1.6 36.5, 1 35.21, 0.6 33.92 C0.2 32.62, 0 31.31, 0 30 C0 28.69, 0.2 27.38, 0.6 26.08 C1 24.79, 1.6 23.5, 2.39 22.24 C3.17 20.97, 4.16 19.73, 5.33 18.52 C6.49 17.31, 7.86 16.13, 9.38 15 C10.9 13.87, 12.61 12.77, 14.47 11.74 C16.32 10.7, 18.35 9.71, 20.5 8.79 C22.66 7.86, 24.97 6.99, 27.39 6.2 C29.8 5.4, 32.36 4.67, 35 4.02 C37.64 3.37, 40.4 2.78, 43.21 2.28 C46.03 1.78, 48.94 1.36, 51.88 1.02 C54.82 0.68, 57.84 0.43, 60.86 0.26 C63.88 0.09, 66.95 0, 70 0 C73.05 0, 76.12 0.09, 79.14 0.26 C82.16 0.43, 85.18 0.68, 88.12 1.02 C91.06 1.36, 93.97 1.78, 96.79 2.28 C99.6 2.78, 102.36 3.37, 105 4.02 C107.64 4.67, 110.2 5.4, 112.61 6.2 C115.03 6.99, 117.34 7.86, 119.5 8.79 C121.65 9.71, 123.68 10.7, 125.53 11.74 C127.39 12.77, 129.1 13.87, 130.62 15 C132.14 16.13, 133.51 17.31, 134.67 18.52 C135.84 19.73, 136.83 20.97, 137.61 22.24 C138.4 23.5, 139 24.79, 139.4 26.08 C139.8 27.38, 139.9 29.35, 140 30 C140.1 30.65, 140.1 29.35, 140 30" stroke="#1971c2" stroke-width="2" fill="none"></path></g><g transform="translate(520 60) rotate(0 70 30)"><text x="70" y="33.15" font-family="Virgil, Segoe UI Emoji" font-size="14px" fill="#1e1e1e" text-anchor="middle" style="white-space: pre;" direction="ltr">Member</text></g><g stroke-linecap="round" transform="translate(850 60) rotate(0 70 30)"><path d="M140 30 C140 31.31, 139.8 32.62, 139.4 33.92 C139 35.21, 138.4 36.5, 137.61 37.76 C136.83 39.03, 135.84 40.27, 134.67 41.48 C133.51 42.69, 132.14 43.87, 130.62 45 C129.1 46.13, 127.39 47.23, 125.53 48.26 C123.68 49.3, 121.65 50.29, 119.5 51.21 C117.34 52.14, 115.03 53.01, 112.61 53.8 C110.2 54.6, 107.64 55.33, 105 55.98 C102.36 56.63, 99.6 57.22, 96.79 57.72 C93.97 58.22, 91.06 58.64, 88.12 58.98 C85.18 59.32, 82.16 59.57, 79.14 59.74 C76.12 59.91, 73.05 60, 70 60 C66.95 60, 63.88 59.91, 60.86 59.74 C57.84 59.57, 54.82 59.32, 51.88 58.98 C48.94 58.64, 46.03 58.22, 43.21 57.72 C40.4 57.22, 37.64 56.63, 35 55.98 C32.36 55.33, 29.8 54.6, 27.39 53.8 C24.97 53.01, 22.66 52.14, 20.5 51.21 C18.35 50.29, 16.32 49.3, 14.47 48.26 C12.61 47.23, 10.9 46.13, 9.38 45 C7.86 43.87, 6.49 42.69, 5.33 41.48 C4.16 40.27, 3.17 39.03, 2.39 37.76 C1.6 36.5, 1 35.21, 0.6 33.92 C0.2 32.62, 0 31.31, 0 30 C0 28.69, 0.2 27.38, 0.6 26.08 C1 24.79, 1.6 23.5, 2.39 22.24 C3.17 20.97, 4.16 19.73, 5.33 18.52 C6.49 17.31, 7.86 16.13, 9.38 15 C10.9 13.87, 12.61 12.77, 14.47 11.74 C16.32 10.7, 18.35 9.71, 20.5 8.79 C22.66 7.86, 24.97 6.99, 27.39 6.2 C29.8 5.4, 32.36 4.67, 35 4.02 C37.64 3.37, 40.4 2.78, 43.21 2.28 C46.03 1.78, 48.94 1.36, 51.88 1.02 C54.82 0.68, 57.84 0.43, 60.86 0.26 C63.88 0.09, 66.95 0, 70 0 C73.05 0, 76.12 0.09, 79.14 0.26 C82.16 0.43, 85.18 0.68, 88.12 1.02 C91.06 1.36, 93.97 1.78, 96.79 2.28 C99.6 2.78, 102.36 3.37, 105 4.02 C107.64 4.67, 110.2 5.4, 112.61 6.2 C115.03 6.99, 117.34 7.86, 119.5 8.79 C121.65 9.71, 123.68 10.7, 125.53 11.74 C127.39 12.77, 129.1 13.87, 130.62 15 C132.14 16.13, 133.51 17.31, 134.67 18.52 C135.84 19.73, 136.83 20.97, 137.61 22.24 C138.4 23.5, 139 24.79, 139.4 26.08 C139.8 27.38, 139.9 29.35, 140 30 C140.1 30.65, 140.1 29.35, 140 30" stroke="none" stroke-width="0" fill="#e7f5ff"></path><path d="M140 30 C140 31.31, 139.8 32.62, 139.4 33.92 C139 35.21, 138.4 36.5, 137.61 37.76 C136.83 39.03, 135.84 40.27, 134.67 41.48 C133.51 42.69, 132.14 43.87, 130.62 45 C129.1 46.13, 127.39 47.23, 125.53 48.26 C123.68 49.3, 121.65 50.29, 119.5 51.21 C117.34 52.14, 115.03 53.01, 112.61 53.8 C110.2 54.6, 107.64 55.33, 105 55.98 C102.36 56.63, 99.6 57.22, 96.79 57.72 C93.97 58.22, 91.06 58.64, 88.12 58.98 C85.18 59.32, 82.16 59.57, 79.14 59.74 C76.12 59.91, 73.05 60, 70 60 C66.95 60, 63.88 59.91, 60.86 59.74 C57.84 59.57, 54.82 59.32, 51.88 58.98 C48.94 58.64, 46.03 58.22, 43.21 57.72 C40.4 57.22, 37.64 56.63, 35 55.98 C32.36 55.33, 29.8 54.6, 27.39 53.8 C24.97 53.01, 22.66 52.14, 20.5 51.21 C18.35 50.29, 16.32 49.3, 14.47 48.26 C12.61 47.23, 10.9 46.13, 9.38 45 C7.86 43.87, 6.49 42.69, 5.33 41.48 C4.16 40.27, 3.17 39.03, 2.39 37.76 C1.6 36.5, 1 35.21, 0.6 33.92 C0.2 32.62, 0 31.31, 0 30 C0 28.69, 0.2 27.38, 0.6 26.08 C1 24.79, 1.6 23.5, 2.39 22.24 C3.17 20.97, 4.16 19.73, 5.33 18.52 C6.49 17.31, 7.86 16.13, 9.38 15 C10.9 13.87, 12.61 12.77, 14.47 11.74 C16.32 10.7, 18.35 9.71, 20.5 8.79 C22.66 7.86, 24.97 6.99, 27.39 6.2 C29.8 5.4, 32.36 4.67, 35 4.02 C37.64 3.37, 40.4 2.78, 43.21 2.28 C46.03 1.78, 48.94 1.36, 51.88 1.02 C54.82 0.68, 57.84 0.43, 60.86 0.26 C63.88 0.09, 66.95 0, 70 0 C73.05 0, 76.12 0.09, 79.14 0.26 C82.16 0.43, 85.18 0.68, 88.12 1.02 C91.06 1.36, 93.97 1.78, 96.79 2.28 C99.6 2.78, 102.36 3.37, 105 4.02 C107.64 4.67, 110.2 5.4, 112.61 6.2 C115.03 6.99, 117.34 7.86, 119.5 8.79 C121.65 9.71, 123.68 10.7, 125.53 11.74 C127.39 12.77, 129.1 13.87, 130.62 15 C132.14 16.13, 133.51 17.31, 134.67 18.52 C135.84 19.73, 136.83 20.97, 137.61 22.24 C138.4 23.5, 139 24.79, 139.4 26.08 C139.8 27.38, 139.9 29.35, 140 30 C140.1 30.65, 140.1 29.35, 140 30" stroke="#1971c2" stroke-width="2" fill="none"></path></g><g transform="translate(850 60) rotate(0 70 30)"><text x="70" y="33.15" font-family="Virgil, Segoe UI Emoji" font-size="14px" fill="#1e1e1e" text-anchor="middle" style="white-space: pre;" direction="ltr">Admin</text></g><g stroke-linecap="round" transform="translate(475 220) rotate(0 77.5 27.5)"><path d="M0 0 L155 0 L155 55 L0 55" stroke="none" stroke-width="0" fill="#ffc9c9"></path><path d="M0 0 C31 0, 62 0, 155 0 M0 0 C34.31 0, 68.62 0, 155 0 M155 0 C155 11.96, 155 23.93, 155 55 M155 0 C155 14.76, 155 29.52, 155 55 M155 55 C121.57 55, 88.14 55, 0 55 M155 55 C96.73 55, 38.47 55, 0 55 M0 55 C0 39.23, 0 23.45, 0 0 M0 55 C0 34.99, 0 14.99, 0 0" stroke="#e03131" stroke-width="2" fill="none"></path></g><g transform="translate(475 220) rotate(0 77.5 27.5)"><text x="77.5" y="22.30" font-family="Virgil, Segoe UI Emoji" font-size="13px" fill="#1e1e1e" text-anchor="middle" style="white-space: pre;" direction="ltr">Slack</text><text x="77.5" y="38.55" font-family="Virgil, Segoe UI Emoji" font-size="13px" fill="#1e1e1e" text-anchor="middle" style="white-space: pre;" direction="ltr">#task-log</text></g><g stroke-linecap="round" transform="translate(665 220) rotate(0 77.5 27.5)"><path d="M0 0 L155 0 L155 55 L0 55" stroke="none" stroke-width="0" fill="#ffc9c9"></path><path d="M0 0 C31 0, 62 0, 155 0 M0 0 C34.31 0, 68.62 0, 155 0 M155 0 C155 11.96, 155 23.93, 155 55 M155 0 C155 14.76, 155 29.52, 155 55 M155 55 C121.57 55, 88.14 55, 0 55 M155 55 C96.73 55, 38.47 55, 0 55 M0 55 C0 39.23, 0 23.45, 0 0 M0 55 C0 34.99, 0 14.99, 0 0" stroke="#e03131" stroke-width="2" fill="none"></path></g><g transform="translate(665 220) rotate(0 77.5 27.5)"><text x="77.5" y="22.30" font-family="Virgil, Segoe UI Emoji" font-size="13px" fill="#1e1e1e" text-anchor="middle" style="white-space: pre;" direction="ltr">Slack</text><text x="77.5" y="38.55" font-family="Virgil, Segoe UI Emoji" font-size="13px" fill="#1e1e1e" text-anchor="middle" style="white-space: pre;" direction="ltr">#task-intake</text></g><g stroke-linecap="round" transform="translate(855 220) rotate(0 82.5 27.5)"><path d="M0 0 L165 0 L165 55 L0 55" stroke="none" stroke-width="0" fill="#ffc9c9"></path><path d="M0 0 C33 0, 66 0, 165 0 M0 0 C36.52 0, 73.05 0, 165 0 M165 0 C165 11.96, 165 23.93, 165 55 M165 0 C165 14.76, 165 29.52, 165 55 M165 55 C129.41 55, 93.83 55, 0 55 M165 55 C102.97 55, 40.95 55, 0 55 M0 55 C0 39.23, 0 23.45, 0 0 M0 55 C0 34.99, 0 14.99, 0 0" stroke="#e03131" stroke-width="2" fill="none"></path></g><g transform="translate(855 220) rotate(0 82.5 27.5)"><text x="82.5" y="22.30" font-family="Virgil, Segoe UI Emoji" font-size="13px" fill="#1e1e1e" text-anchor="middle" style="white-space: pre;" direction="ltr">Slack</text><text x="82.5" y="38.55" font-family="Virgil, Segoe UI Emoji" font-size="13px" fill="#1e1e1e" text-anchor="middle" style="white-space: pre;" direction="ltr">#shop-sergeant</text></g><g stroke-linecap="round" transform="translate(1080 220) rotate(0 82.5 27.5)"><path d="M0 0 L165 0 L165 55 L0 55" stroke="none" stroke-width="0" fill="#ffc9c9"></path><path d="M0 0 C33 0, 66 0, 165 0 M0 0 C36.52 0, 73.05 0, 165 0 M165 0 C165 11.96, 165 23.93, 165 55 M165 0 C165 14.76, 165 29.52, 165 55 M165 55 C129.41 55, 93.83 55, 0 55 M165 55 C102.97 55, 40.95 55, 0 55 M0 55 C0 39.23, 0 23.45, 0 0 M0 55 C0 34.99, 0 14.99, 0 0" stroke="#e03131" stroke-width="2" fill="none"></path></g><g transform="translate(1080 220) rotate(0 82.5 27.5)"><text x="82.5" y="22.30" font-family="Virgil, Segoe UI Emoji" font-size="13px" fill="#1e1e1e" text-anchor="middle" style="white-space: pre;" direction="ltr">Slack</text><text x="82.5" y="38.55" font-family="Virgil, Segoe UI Emoji" font-size="13px" fill="#1e1e1e" text-anchor="middle" style="white-space: pre;" direction="ltr">#announcements</text></g><g stroke-linecap="round" transform="translate(675 375) rotate(0 112.5 35)"><path d="M0 0 L225 0 L225 70 L0 70" stroke="none" stroke-width="0" fill="#ffa8a8"></path><path d="M0 0 C45 0, 90 0, 225 0 M0 0 C49.8 0, 99.61 0, 225 0 M225 0 C225 15.23, 225 30.45, 225 70 M225 0 C225 18.79, 225 37.58, 225 70 M225 70 C176.47 70, 127.95 70, 0 70 M225 70 C140.42 70, 55.84 70, 0 70 M0 70 C0 49.92, 0 29.85, 0 0 M0 70 C0 44.54, 0 19.07, 0 0" stroke="#c92a2a" stroke-width="3" fill="none"></path></g><g transform="translate(675 375) rotate(0 112.5 35)"><text x="112.5" y="29.80" font-family="Virgil, Segoe UI Emoji" font-size="13px" fill="#1e1e1e" text-anchor="middle" style="white-space: pre;" direction="ltr">Slack Bot</text><text x="112.5" y="46.05" font-family="Virgil, Segoe UI Emoji" font-size="13px" fill="#1e1e1e" text-anchor="middle" style="white-space: pre;" direction="ltr">(bot/app.py + handlers/)</text></g><g stroke-linecap="round" transform="translate(465 555) rotate(0 90 30)"><path d="M0 0 L180 0 L180 60 L0 60" stroke="none" stroke-width="0" fill="#e599f7"></path><path d="M0 0 C36 0, 72 0, 180 0 M0 0 C39.84 0, 79.69 0, 180 0 M180 0 C180 13.05, 180 26.1, 180 60 M180 0 C180 16.1, 180 32.21, 180 60 M180 60 C141.18 60, 102.36 60, 0 60 M180 60 C112.34 60, 44.67 60, 0 60 M0 60 C0 42.79, 0 25.58, 0 0 M0 60 C0 38.17, 0 16.35, 0 0" stroke="#9c36b5" stroke-width="2" fill="none"></path></g><g transform="translate(465 555) rotate(0 90 30)"><text x="90" y="25.20" font-family="Virgil, Segoe UI Emoji" font-size="12px" fill="#1e1e1e" text-anchor="middle" style="white-space: pre;" direction="ltr">Claude API</text><text x="90" y="40.20" font-family="Virgil, Segoe UI Emoji" font-size="12px" fill="#1e1e1e" text-anchor="middle" style="white-space: pre;" direction="ltr">(OCR + NL Queries)</text></g><g stroke-linecap="round" transform="translate(695 555) rotate(0 92.5 30)"><path d="M0 0 L185 0 L185 60 L0 60" stroke="none" stroke-width="0" fill="#d0bfff"></path><path d="M0 0 C37 0, 74 0, 185 0 M0 0 C40.95 0, 81.9 0, 185 0 M185 0 C185 13.05, 185 26.1, 185 60 M185 0 C185 16.1, 185 32.21, 185 60 M185 60 C145.1 60, 105.2 60, 0 60 M185 60 C115.46 60, 45.91 60, 0 60 M0 60 C0 42.79, 0 25.58, 0 0 M0 60 C0 38.17, 0 16.35, 0 0" stroke="#7048e8" stroke-width="2" fill="none"></path></g><g transform="translate(695 555) rotate(0 92.5 30)"><text x="92.5" y="25.20" font-family="Virgil, Segoe UI Emoji" font-size="12px" fill="#1e1e1e" text-anchor="middle" style="white-space: pre;" direction="ltr">Google Sheets Client</text><text x="92.5" y="40.20" font-family="Virgil, Segoe UI Emoji" font-size="12px" fill="#1e1e1e" text-anchor="middle" style="white-space: pre;" direction="ltr">(bot/sheets.py)</text></g><g stroke-linecap="round" transform="translate(945 555) rotate(0 80 30)"><path d="M0 0 L160 0 L160 60 L0 60" stroke="none" stroke-width="0" fill="#fff3bf"></path><path d="M0 0 C32 0, 64 0, 160 0 M0 0 C35.42 0, 70.83 0, 160 0 M160 0 C160 13.05, 160 26.1, 160 60 M160 0 C160 16.1, 160 32.21, 160 60 M160 60 C125.49 60, 90.98 60, 0 60 M160 60 C99.85 60, 39.71 60, 0 60 M0 60 C0 42.79, 0 25.58, 0 0 M0 60 C0 38.17, 0 16.35, 0 0" stroke="#fab005" stroke-width="2" fill="none"></path></g><g transform="translate(945 555) rotate(0 80 30)"><text x="80" y="25.20" font-family="Virgil, Segoe UI Emoji" font-size="12px" fill="#1e1e1e" text-anchor="middle" style="white-space: pre;" direction="ltr">APScheduler</text><text x="80" y="40.20" font-family="Virgil, Segoe UI Emoji" font-size="12px" fill="#1e1e1e" text-anchor="middle" style="white-space: pre;" direction="ltr">(bot/scheduler.py)</text></g><g stroke-linecap="round" transform="translate(600 710) rotate(0 185 32.5)"><path d="M0 0 L370 0 L370 65 L0 65" stroke="none" stroke-width="0" fill="#b2f2bb"></path><path d="M0 0 C74 0, 148 0, 370 0 M0 0 C81.9 0, 163.8 0, 370 0 M370 0 C370 14.14, 370 28.28, 370 65 M370 0 C370 17.45, 370 34.89, 370 65 M370 65 C290.2 65, 210.4 65, 0 65 M370 65 C230.91 65, 91.82 65, 0 65 M0 65 C0 46.36, 0 27.71, 0 0 M0 65 C0 41.36, 0 17.71, 0 0" stroke="#2f9e44" stroke-width="2" fill="none"></path></g><g transform="translate(600 710) rotate(0 185 32.5)"><text x="185" y="27.30" font-family="Virgil, Segoe UI Emoji" font-size="13px" fill="#1e1e1e" text-anchor="middle" style="white-space: pre;" direction="ltr">Google Sheets</text><text x="185" y="43.55" font-family="Virgil, Segoe UI Emoji" font-size="13px" fill="#1e1e1e" text-anchor="middle" style="white-space: pre;" direction="ltr">(task-log | members | task-catalog)</text></g><g stroke-linecap="round"><g transform="translate(210 300) rotate(0 0 30)"><path d="M0 0 C0 10, 0 50, 0 60 M0 0 C0 10, 0 50, 0 60" stroke="#495057" stroke-width="2" fill="none"></path></g><g transform="translate(210 300) rotate(0 0 30)"><path d="M-10.26 31.81 C-8.21 37.45, -6.16 43.09, 0 60 M-10.26 31.81 C-7.99 38.05, -5.72 44.29, 0 60" stroke="#495057" stroke-width="2" fill="none"></path></g><g transform="translate(210 300) rotate(0 0 30)"><path d="M10.26 31.81 C8.21 37.45, 6.16 43.09, 0 60 M10.26 31.81 C7.99 38.05, 5.72 44.29, 0 60" stroke="#495057" stroke-width="2" fill="none"></path></g></g><g stroke-linecap="round"><g transform="translate(210 425) rotate(0 0 27.5)"><path d="M0 0 C0 9.17, 0 45.83, 0 55 M0 0 C0 9.17, 0 45.83, 0 55" stroke="#495057" stroke-width="2" fill="none"></path></g><g transform="translate(210 425) rotate(0 0 27.5)"><path d="M-9.41 29.16 C-7.52 34.33, -5.64 39.5, 0 55 M-9.41 29.16 C-7.32 34.88, -5.24 40.6, 0 55" stroke="#495057" stroke-width="2" fill="none"></path></g><g transform="translate(210 425) rotate(0 0 27.5)"><path d="M9.41 29.16 C7.52 34.33, 5.64 39.5, 0 55 M9.41 29.16 C7.32 34.88, 5.24 40.6, 0 55" stroke="#495057" stroke-width="2" fill="none"></path></g></g><g stroke-linecap="round"><g transform="translate(195 540) rotate(0 -30 32.5)"><path d="M0 0 C-10 0, -50 -10.83, -60 0 C-70 10.83, -60 54.17, -60 65 M0 0 C-10 0, -50 -10.83, -60 0 C-70 10.83, -60 54.17, -60 65" stroke="#495057" stroke-width="2" fill="none"></path></g><g transform="translate(195 540) rotate(0 -30 32.5)"><path d="M-73.35 38.14 C-70.68 43.51, -68.01 48.88, -60 65 M-73.35 38.14 C-70.4 44.08, -67.44 50.03, -60 65" stroke="#495057" stroke-width="2" fill="none"></path></g><g transform="translate(195 540) rotate(0 -30 32.5)"><path d="M-52.96 35.84 C-54.37 41.67, -55.78 47.5, -60 65 M-52.96 35.84 C-54.52 42.29, -56.08 48.75, -60 65" stroke="#495057" stroke-width="2" fill="none"></path></g></g><g stroke-linecap="round"><g transform="translate(225 540) rotate(0 36 32.5)"><path d="M0 0 C12 0, 60 -10.83, 72 0 C84 10.83, 72 54.17, 72 65 M0 0 C12 0, 60 -10.83, 72 0 C84 10.83, 72 54.17, 72 65" stroke="#495057" stroke-width="2" fill="none"></path></g><g transform="translate(225 540) rotate(0 36 32.5)"><path d="M65.61 35.69 C66.89 41.55, 68.17 47.41, 72 65 M65.61 35.69 C67.02 42.18, 68.44 48.66, 72 65" stroke="#495057" stroke-width="2" fill="none"></path></g><g transform="translate(225 540) rotate(0 36 32.5)"><path d="M85.95 38.44 C83.16 43.75, 80.37 49.06, 72 65 M85.95 38.44 C82.86 44.32, 79.77 50.2, 72 65" stroke="#495057" stroke-width="2" fill="none"></path></g></g><g stroke-linecap="round"><g transform="translate(590 120) rotate(0 -19 50)"><path d="M0 0 C-6.33 0, -31.67 -16.67, -38 0 C-44.33 16.67, -38 83.33, -38 100 M0 0 C-6.33 0, -31.67 -16.67, -38 0 C-44.33 16.67, -38 83.33, -38 100" stroke="#1971c2" stroke-width="2" fill="none"></path></g><g transform="translate(590 120) rotate(0 -19 50)"><path d="M-49.56 72.32 C-47.24 77.85, -44.93 83.39, -38 100 M-49.56 72.32 C-47 78.44, -44.44 84.57, -38 100" stroke="#1971c2" stroke-width="2" fill="none"></path></g><g transform="translate(590 120) rotate(0 -19 50)"><path d="M-29.06 71.36 C-30.85 77.09, -32.63 82.82, -38 100 M-29.06 71.36 C-31.04 77.7, -33.02 84.04, -38 100" stroke="#1971c2" stroke-width="2" fill="none"></path></g></g><g stroke-linecap="round"><g transform="translate(910 120) rotate(0 -84 50)"><path d="M0 0 C-28 0, -140 -16.67, -168 0 C-196 16.67, -168 83.33, -168 100 M0 0 C-28 0, -140 -16.67, -168 0 C-196 16.67, -168 83.33, -168 100" stroke="#1971c2" stroke-width="2" fill="none"></path></g><g transform="translate(910 120) rotate(0 -84 50)"><path d="M-183.72 74.45 C-180.57 79.56, -177.43 84.67, -168 100 M-183.72 74.45 C-180.24 80.1, -176.76 85.76, -168 100" stroke="#1971c2" stroke-width="2" fill="none"></path></g><g transform="translate(910 120) rotate(0 -84 50)"><path d="M-163.61 70.32 C-164.49 76.26, -165.37 82.19, -168 100 M-163.61 70.32 C-164.58 76.89, -165.56 83.46, -168 100" stroke="#1971c2" stroke-width="2" fill="none"></path></g></g><g stroke-linecap="round"><g transform="translate(930 120) rotate(0 3.5 50)"><path d="M0 0 C1.17 0, 5.83 -16.67, 7 0 C8.17 16.67, 7 83.33, 7 100 M0 0 C1.17 0, 5.83 -16.67, 7 0 C8.17 16.67, 7 83.33, 7 100" stroke="#1971c2" stroke-width="2" fill="none"></path></g><g transform="translate(930 120) rotate(0 3.5 50)"><path d="M-3.02 71.72 C-1.02 77.38, 0.99 83.03, 7 100 M-3.02 71.72 C-0.8 77.98, 1.42 84.24, 7 100" stroke="#1971c2" stroke-width="2" fill="none"></path></g><g transform="translate(930 120) rotate(0 3.5 50)"><path d="M17.5 71.9 C15.4 77.52, 13.3 83.14, 7 100 M17.5 71.9 C15.18 78.12, 12.85 84.34, 7 100" stroke="#1971c2" stroke-width="2" fill="none"></path></g></g><g stroke-linecap="round"><g transform="translate(552 275) rotate(0 74 50)"><path d="M0 0 C24.67 0, 123.33 -16.67, 148 0 C172.67 16.67, 148 83.33, 148 100 M0 0 C24.67 0, 123.33 -16.67, 148 0 C172.67 16.67, 148 83.33, 148 100" stroke="#495057" stroke-width="2" fill="none"></path></g><g transform="translate(552 275) rotate(0 74 50)"><path d="M142.92 70.43 C143.93 76.35, 144.95 82.26, 148 100 M142.92 70.43 C144.04 76.98, 145.17 83.52, 148 100" stroke="#495057" stroke-width="2" fill="none"></path></g><g transform="translate(552 275) rotate(0 74 50)"><path d="M163.11 74.08 C160.09 79.27, 157.07 84.45, 148 100 M163.11 74.08 C159.77 79.82, 156.42 85.56, 148 100" stroke="#495057" stroke-width="2" fill="none"></path></g></g><g stroke-linecap="round"><g transform="translate(742 275) rotate(0 22.5 50)"><path d="M0 0 C7.5 0, 37.5 -16.67, 45 0 C52.5 16.67, 45 83.33, 45 100 M0 0 C7.5 0, 37.5 -16.67, 45 0 C52.5 16.67, 45 83.33, 45 100" stroke="#495057" stroke-width="2" fill="none"></path></g><g transform="translate(742 275) rotate(0 22.5 50)"><path d="M36.3 71.29 C38.04 77.03, 39.78 82.77, 45 100 M36.3 71.29 C38.23 77.64, 40.15 84, 45 100" stroke="#495057" stroke-width="2" fill="none"></path></g><g transform="translate(742 275) rotate(0 22.5 50)"><path d="M56.79 72.41 C54.43 77.93, 52.07 83.45, 45 100 M56.79 72.41 C54.18 78.52, 51.57 84.63, 45 100" stroke="#495057" stroke-width="2" fill="none"></path></g></g><g stroke-linecap="round"><g transform="translate(937 275) rotate(0 -33.5 50)"><path d="M0 0 C-11.17 0, -55.83 -16.67, -67 0 C-78.17 16.67, -67 83.33, -67 100 M0 0 C-11.17 0, -55.83 -16.67, -67 0 C-78.17 16.67, -67 83.33, -67 100" stroke="#495057" stroke-width="2" fill="none"></path></g><g transform="translate(937 275) rotate(0 -33.5 50)"><path d="M-79.52 72.74 C-77.02 78.19, -74.51 83.64, -67 100 M-79.52 72.74 C-76.75 78.77, -73.98 84.81, -67 100" stroke="#495057" stroke-width="2" fill="none"></path></g><g transform="translate(937 275) rotate(0 -33.5 50)"><path d="M-59.07 71.07 C-60.66 76.85, -62.24 82.64, -67 100 M-59.07 71.07 C-60.83 77.47, -62.58 83.88, -67 100" stroke="#495057" stroke-width="2" fill="none"></path></g></g><g stroke-linecap="round"><g transform="translate(720 445) rotate(0 -82.5 55)"><path d="M0 0 C-27.5 0, -137.5 -18.33, -165 0 C-192.5 18.33, -165 91.67, -165 110 M0 0 C-27.5 0, -137.5 -18.33, -165 0 C-192.5 18.33, -165 91.67, -165 110" stroke="#9c36b5" stroke-width="2" fill="none"></path></g><g transform="translate(720 445) rotate(0 -82.5 55)"><path d="M-180.17 84.12 C-177.14 89.3, -174.1 94.47, -165 110 M-180.17 84.12 C-176.81 89.85, -173.45 95.58, -165 110" stroke="#9c36b5" stroke-width="2" fill="none"></path></g><g transform="translate(720 445) rotate(0 -82.5 55)"><path d="M-159.99 80.42 C-160.99 86.34, -161.99 92.25, -165 110 M-159.99 80.42 C-161.1 86.97, -162.21 93.52, -165 110" stroke="#9c36b5" stroke-width="2" fill="none"></path></g></g><g stroke-linecap="round"><g transform="translate(787 445) rotate(0 0 55)"><path d="M0 0 C0 18.33, 0 91.67, 0 110 M0 0 C0 18.33, 0 91.67, 0 110" stroke="#7048e8" stroke-width="2" fill="none"></path></g><g transform="translate(787 445) rotate(0 0 55)"><path d="M-10.26 81.81 C-8.21 87.45, -6.16 93.09, 0 110 M-10.26 81.81 C-7.99 88.05, -5.72 94.29, 0 110" stroke="#7048e8" stroke-width="2" fill="none"></path></g><g transform="translate(787 445) rotate(0 0 55)"><path d="M10.26 81.81 C8.21 87.45, 6.16 93.09, 0 110 M10.26 81.81 C7.99 88.05, 5.72 94.29, 0 110" stroke="#7048e8" stroke-width="2" fill="none"></path></g></g><g stroke-linecap="round"><g transform="translate(855 445) rotate(0 85 55)"><path d="M0 0 C28.33 0, 141.67 -18.33, 170 0 C198.33 18.33, 170 91.67, 170 110 M0 0 C28.33 0, 141.67 -18.33, 170 0 C198.33 18.33, 170 91.67, 170 110" stroke="#fab005" stroke-width="2" fill="none"></path></g><g transform="translate(855 445) rotate(0 85 55)"><path d="M165.14 80.4 C166.12 86.32, 167.09 92.24, 170 110 M165.14 80.4 C166.22 86.95, 167.29 93.5, 170 110" stroke="#fab005" stroke-width="2" fill="none"></path></g><g transform="translate(855 445) rotate(0 85 55)"><path d="M185.31 84.2 C182.25 89.36, 179.19 94.52, 170 110 M185.31 84.2 C181.92 89.91, 178.53 95.62, 170 110" stroke="#fab005" stroke-width="2" fill="none"></path></g></g><g stroke-linecap="round"><g transform="translate(787 615) rotate(0 -1 47.5)"><path d="M0 0 C-0.33 0, -1.67 -15.83, -2 0 C-2.33 15.83, -2 79.17, -2 95 M0 0 C-0.33 0, -1.67 -15.83, -2 0 C-2.33 15.83, -2 79.17, -2 95" stroke="#2f9e44" stroke-width="2" fill="none"></path></g><g transform="translate(787 615) rotate(0 -1 47.5)"><path d="M-12.33 66.84 C-10.27 72.47, -8.2 78.1, -2 95 M-12.33 66.84 C-10.05 73.07, -7.76 79.3, -2 95" stroke="#2f9e44" stroke-width="2" fill="none"></path></g><g transform="translate(787 615) rotate(0 -1 47.5)"><path d="M8.19 66.78 C6.15 72.43, 4.11 78.07, -2 95 M8.19 66.78 C5.93 73.03, 3.68 79.27, -2 95" stroke="#2f9e44" stroke-width="2" fill="none"></path></g></g><g stroke-linecap="round"><g transform="translate(1025 555) rotate(0 68.5 -140)"><path d="M0 0 C22.83 0, 114.17 46.67, 137 0 C159.83 -46.67, 137 -233.33, 137 -280 M0 0 C22.83 0, 114.17 46.67, 137 0 C159.83 -46.67, 137 -233.33, 137 -280" stroke="#fab005" stroke-width="2" fill="none"></path></g><g transform="translate(1025 555) rotate(0 68.5 -140)"><path d="M148.92 -252.47 C146.54 -257.98, 144.15 -263.48, 137 -280 M148.92 -252.47 C146.28 -258.56, 143.64 -264.66, 137 -280" stroke="#fab005" stroke-width="2" fill="none"></path></g><g transform="translate(1025 555) rotate(0 68.5 -140)"><path d="M128.44 -251.25 C130.15 -257, 131.86 -262.75, 137 -280 M128.44 -251.25 C130.33 -257.61, 132.23 -263.98, 137 -280" stroke="#fab005" stroke-width="2" fill="none"></path></g></g></svg>